<svg xmlns="http://www.w3.org/2000/svg" xmlns:xlink="http://www.w3.org/1999/xlink" viewBox="0 0 2141.7 1295.58"><defs><style>.cls-1{fill:#f87f8d;}.cls-2{fill:#b65e57;}.cls-3{fill:#fff;}.cls-4{fill:none;stroke:#000;stroke-miterlimit:10;stroke-width:2px;}</style><image id="image" width="435" height="419" xlink:href="../../Label/leaf.png"/><image id="image-2" width="186" height="178" xlink:href="../../Label/flow2.png"/><image id="image-3" width="183" height="174" xlink:href="../../Label/flow1.png"/></defs><g id="Layer_2" data-name="Layer 2"><g id="Layer_4" data-name="Layer 4"><use transform="matrix(1.81, -0.09, 0.09, 1.79, 0, 410.79)" xlink:href="#image"/><use transform="matrix(1.89, 0.34, -0.35, 1.97, 545.93, 78.78)" xlink:href="#image"/><use transform="matrix(1.66, 0.98, -1.02, 1.72, 1122.89, 0)" xlink:href="#image"/><use transform="matrix(1.05, 1.61, -1.67, 1.09, 1684.49, 23)" xlink:href="#image"/><use transform="matrix(2.09, 0.93, -0.83, 1.86, 941, 112)" xlink:href="#image"/><path class="cls-1" d="M196,367s-2-95,126-107c0,0,126-80,239,47,1,6,61,85-12,227,4-1-159,249-159,249s-81,149,23,132c3-4,137-178,453-102,0,0,100,43,174,127,6,5,66,0,109-16,2,1,36-8,22,8,1,1,56-38,30,13,0,5,30-8-6,42-2,4-73,112-133,147,2,1-745,0-745,0S155,975,278,751c.5-.5,175.5-251.5,175.5-251.5s67-108,12-116c0,1-28-11-57,20,1,4-15,105-134,95,4,0-48,37-48,37Z"/><path class="cls-2" d="M619.88,897.13a545.21,545.21,0,0,1,57.5-8.43l14.5-1.18,14.52-.82,14.54-.46,14.55-.12,14.55.25,14.53.58,14.52,1,14.48,1.31a541.37,541.37,0,0,1,57.42,9q-28.72-4.29-57.63-6.63l-14.45-1-14.47-.74L750,889.3l-14.48-.19-14.49.06-14.48.36-14.48.61-14.46.89Q648.67,893.1,619.88,897.13Z"/><path class="cls-2" d="M514.62,861.14A120.76,120.76,0,0,1,543.18,849a201.57,201.57,0,0,1,30.56-6.09c10.3-1.35,20.65-2.08,31-2.79s20.65-1.21,31-1.7,20.68-.77,31-1,20.69-.36,31-.29c20.69,0,41.37.56,62,1.78-20.68.44-41.33.8-62,1.34-10.33.3-20.65.56-31,1s-20.64.72-31,1.21-20.63.92-30.94,1.47S584.33,845,574.09,846c-5.11.52-10.22,1.12-15.29,1.93-2.55.35-5.06.87-7.59,1.3s-5,1-7.53,1.65A137.49,137.49,0,0,0,514.62,861.14Z"/><path class="cls-2" d="M901.78,903.29c7.35-1.31,15-.47,22.2,1.34A151.78,151.78,0,0,1,945.12,912c13.77,5.61,27.58,11.13,41.31,16.84s27.46,11.42,41.18,17.14,27.41,11.54,41.07,17.41l3.13,1.35-3.17,1.18c-7.21,2.68-14.48,5.2-21.83,7.42s-14.76,4.29-22.22,6.13l-5.6,1.34-5.62,1.27-5.65,1.14-5.65,1.06c-7.56,1.37-15.14,2.54-22.76,3.42,7.55-1.33,15.08-2.77,22.55-4.44l5.6-1.28,5.57-1.36,5.57-1.4,5.54-1.47q11.07-3,21.95-6.64c7.25-2.43,14.46-5,21.58-7.74l-.05,2.53c-13.75-5.65-27.45-11.43-41.17-17.16s-27.4-11.55-41.06-17.42-27.29-11.82-40.94-17.72c-3.41-1.48-6.82-2.93-10.26-4.3s-6.92-2.63-10.47-3.66A55.58,55.58,0,0,0,901.78,903.29Z"/><path class="cls-2" d="M870.73,1058.26l127.85-42.54,2.22-.74-.71,2.23a25.19,25.19,0,0,1-4.26,7.86,38.15,38.15,0,0,1-6.3,6.15,127.64,127.64,0,0,1-14.47,9.35l-7.36,4.35c-2.45,1.45-4.94,2.84-7.41,4.26l-7.42,4.24-7.48,4.13c-10,5.54-20,10.86-30.18,16.08-5.07,2.61-10.19,5.11-15.28,7.67l-15.43,7.38c-10.34,4.81-20.79,9.37-31.3,13.79-5.28,2.15-10.55,4.33-15.87,6.37l-8,3.11-8,3c-21.36,8-43,15.07-65,21.21l-.12-.38q32.25-11.27,63.91-23.88l7.91-3.16,7.87-3.28c5.26-2.14,10.46-4.43,15.67-6.68s10.41-4.55,15.62-6.82l15.52-7c20.65-9.47,41.06-19.48,61.1-30.2l7.5-4,7.45-4.14c2.48-1.39,5-2.75,7.44-4.16l7.39-4.25a127.19,127.19,0,0,0,14.29-9,35.57,35.57,0,0,0,5.95-5.67,22.3,22.3,0,0,0,3.92-7l1.51,1.5-128.46,40.65Z"/><path class="cls-2" d="M439.32,929c-7.51,8.18-15.35,16.08-21.24,25.14a67.85,67.85,0,0,0-7.09,14.4c-.9,2.54-1.76,5.12-2.51,7.75s-1.51,5.25-2.2,7.89a225.27,225.27,0,0,0-5.81,32.26,274.86,274.86,0,0,0-1.23,33,138.6,138.6,0,0,1-2.66-33.31,155.2,155.2,0,0,1,4.86-33.24,147.7,147.7,0,0,1,5.13-16.07,61.79,61.79,0,0,1,8.32-14.94C421.74,942.75,430.44,935.61,439.32,929Z"/><path class="cls-2" d="M463.7,1095a39.56,39.56,0,0,1,8.31,2.51,66.32,66.32,0,0,1,7.76,4c5,3,9.64,6.4,14.4,9.41a61,61,0,0,0,15,7.1,155.64,155.64,0,0,0,16.47,3.82c11.26,2.24,22.45,4.6,33.68,6.65s22.53,3.64,34,4.63a165.92,165.92,0,0,1-34.58-.77c-11.49-1.28-22.83-3.37-34.09-5.6a128.47,128.47,0,0,1-17-4.24,56.72,56.72,0,0,1-15.66-8.37c-4.75-3.41-9.06-7.2-13.6-10.61a77.74,77.74,0,0,0-7-4.82A51.08,51.08,0,0,0,463.7,1095Z"/><path class="cls-2" d="M1170.65,935.2c-6.2,5.19-13.57,8.83-20.75,12.32l-10.77,5.25c-3.59,1.74-7.18,3.49-10.74,5.29s-7.15,3.54-10.71,5.34L1107,968.78c-7.13,3.6-14.25,7.26-21.52,10.72a216.47,216.47,0,0,1,20-13.45c3.43-2.11,7-4,10.46-6s7.11-3.75,10.7-5.56,7.24-3.49,10.91-5.13,7.37-3.22,11.11-4.68C1156.1,941.7,1163.55,939,1170.65,935.2Z"/><path class="cls-2" d="M1090.14,1008.85q8.65-9,18.07-17.25l4.74-4.07,4.82-4,4.91-3.88,5-3.79c6.68-5,13.6-9.71,20.66-14.18s14.33-8.63,21.73-12.54l2.19-1.16,1,2.33a12.44,12.44,0,0,1,.55,7.18,24.92,24.92,0,0,1-2.26,6.16c-1,1.91-2,3.57-3,5.32s-2.14,3.41-3.23,5.11a158,158,0,0,1-14.79,19.09,199.26,199.26,0,0,1-36.51,31.25c-6.64,4.48-13.51,8.61-20.54,12.4s-14.2,7.31-21.48,10.54a456.44,456.44,0,0,1-44.59,17c14.62-6.23,29.16-12.57,43.31-19.64,7.07-3.56,14.05-7.26,20.86-11.22l5.08-3,5-3.13c3.32-2.11,6.6-4.28,9.81-6.54a210.13,210.13,0,0,0,35.35-30.91,160.43,160.43,0,0,0,14.45-18.44c1.06-1.64,2.18-3.24,3.16-4.93s2.07-3.35,2.91-5a19.94,19.94,0,0,0,1.94-4.93,7.85,7.85,0,0,0-.2-4.53l3.15,1.17c-7.38,3.71-14.61,7.71-21.74,11.88s-14.1,8.66-21,13.29l-5.1,3.54-5,3.62-5,3.69-4.94,3.78Q1099.54,1000.64,1090.14,1008.85Z"/><path class="cls-2" d="M1147.64,1019.26q-9.26,13.1-19.3,25.61-2.52,3.12-5.09,6.2l-5.22,6.1c-1.77,2-3.59,4-5.38,6l-5.51,5.85-5.71,5.67-5.87,5.5-6.09,5.28c-2.07,1.71-4.18,3.37-6.28,5a151,151,0,0,1-27.28,16.94,232.43,232.43,0,0,0,25.82-18.77l6-5.2,5.87-5.38,5.75-5.51,5.61-5.66,5.52-5.76,5.4-5.86,5.35-5.93,5.29-6C1133.58,1035.35,1140.5,1027.22,1147.64,1019.26Z"/><path class="cls-3" d="M246,356s-82-12-124,79c-.34-.68-11.74,18.46-20.67,49.59C84,545.18,75.93,651.2,177,745c2,1,17,9,28-116,1-2,2-55,54-111,0,0,23.5-22.5-1.5-58.5,1,0-28-24,30-60,2,3,54-9,35-61C323.5,341.5,291.5,281.5,246,356Z"/><path d="M245.5,484.5s-50,53-53,117c1,1,12,38,12,38s-8,98-27,108c1,2-110-103-84-220,1,1,16-97,63-114,4-1-49,96,26,174C185.5,584.5,207.5,503.5,245.5,484.5Z"/><path d="M167.5,423.5s19-48,70-56C239.5,368.5,174.5,400.5,167.5,423.5Z"/><ellipse class="cls-4" cx="287" cy="356.75" rx="22.5" ry="23.25"/><ellipse cx="287.5" cy="355" rx="10.5" ry="12"/></g><g id="Layer_11" data-name="Layer 11"><use transform="matrix(0.88, -0.23, 0.23, 0.88, 1357, 1001.1)" xlink:href="#image-2"/><use transform="matrix(0.02, -1.23, 1.23, 0.02, 1493, 1128.59)" xlink:href="#image-3"/><use transform="matrix(1.19, 0.32, -0.32, 1.19, 1245.99, 727)" xlink:href="#image-2"/><use transform="matrix(1.19, 0.32, -0.32, 1.19, 1219.99, 880)" xlink:href="#image-2"/><use transform="translate(1337 838) scale(1.23)" xlink:href="#image-3"/><use transform="matrix(1.19, -0.31, 0.31, 1.19, 1627, 943.49)" xlink:href="#image-2"/><use transform="translate(1584 293) scale(1.23)" xlink:href="#image-3"/><use transform="matrix(0.02, -1.23, 1.23, 0.02, 1636, 1015.59)" xlink:href="#image-3"/><use transform="matrix(1.19, 0.32, -0.32, 1.19, 1399.99, 644)" xlink:href="#image-2"/><use transform="translate(1485.77 746.11) scale(1.23)" xlink:href="#image-3"/><use transform="matrix(1.19, 0.32, -0.32, 1.19, 1679.99, 413)" xlink:href="#image-2"/><use transform="translate(1494.4 543.92) scale(1.23)" xlink:href="#image-2"/><use transform="matrix(1.19, -0.31, 0.31, 1.19, 1616.92, 659.39)" xlink:href="#image-2"/></g><g id="Layer_9" data-name="Layer 9"><image width="507" height="351" transform="translate(556 162) scale(2.26 2.42)" xlink:href="../../Label/Logo2.png"/></g></g></svg>