<svg xmlns="http://www.w3.org/2000/svg" xmlns:xlink="http://www.w3.org/1999/xlink" viewBox="0 0 1812.65 1009.94"><defs><style>.cls-1,.cls-4{fill:none;}.cls-2{clip-path:url(#clip-path);}.cls-3{fill:#39a935;}.cls-4{stroke:#063;stroke-miterlimit:10;}.cls-5{fill:#93c01f;}.cls-6{clip-path:url(#clip-path-3);}.cls-7{clip-path:url(#clip-path-5);}.cls-8{clip-path:url(#clip-path-7);}</style><clipPath id="clip-path" transform="translate(-110.68 -272.07)"><rect class="cls-1" y="336.77" width="1029" height="1016"/></clipPath><clipPath id="clip-path-3" transform="translate(-110.68 -272.07)"><rect class="cls-1" x="285.5" y="296.27" width="1016" height="1029" transform="translate(-303.7 1099.08) rotate(-60.34)"/></clipPath><clipPath id="clip-path-5" transform="translate(-110.68 -272.07)"><rect class="cls-1" x="620.99" y="221.75" width="1110.83" height="1114.99" transform="matrix(0.49, -0.87, 0.87, 0.49, -82.89, 1415.89)"/></clipPath><clipPath id="clip-path-7" transform="translate(-110.68 -272.07)"><rect class="cls-1" x="944.99" y="217.75" width="1110.83" height="1114.99" transform="translate(1.85 1554.05) rotate(-54.79)"/></clipPath></defs><g id="Layer_2" data-name="Layer 2"><g id="Layer_4" data-name="Layer 4"><g class="cls-2"><g class="cls-2"><path class="cls-3" d="M645.31,999.58s-21.48-34.35,13.7-21.91c1.74-2.56,67.67,60.88,67.67,60.88s103.05,74.79,171.65-18.92c2.52-1.92,67.67-115.51,23.2-235.45C921,785,870.65,638,780.52,571c1.77,2.73,10.56,152-71.81,257,1.19,3.59-15.2,31.25-22.56,8.23.17-3.82,4-46.83,24.63-79,.17-3.82,46.37-93.12,42-170.38,4.67-1.52-13.51-67.44-60.45-89.31,2.56,3.36-89.07-54.37-89.07-54.37S640.9,569.52,613.38,683c-1.56-1.25-2.78,50.42-16.68,70.86,4.26-4.48-21.17,13.3-13.23-25.09,3.3-1.3,25.67-157.12,17.69-184.59,1.94-1.07-.29-72.63-30.9-102.46.37-2.34-29.25-30.06-145.62-24.7-1.77-2.74,58.53,35.12,69.2,203-1-2.11-.06,80.26-.06,80.26s-1,28.17-17.86,12c1.95-1.07-11.66-23.84-6.58-52.68,3.47-5.11-6.78-139.71-30.85-182.72,1.16-1.7-21.76-76.7-98-48.36,1.94-1.08-50.41,13.52-75.05,31.92-.79-.63,76.46,33.71,101.87,131.77l13.78,49.23S384,672.75,362,644.55c1.94-1.08-24.21-64.19-24.21-64.19s-48-120.12-83.73-101.42c4.09-.66-14.36-18.1-55,30.93,3.88-2.15-26.42,15.66-48.5,37.43,2.14.41-27.06,5.93-30.13,14,2.73-.44,37.73,15.8,20.67,58.71,3.13,2.52-22.18,66.46-9.53,122.69.79.63,21,45.79,101.76,55.32,1.56,1.26,93.39-.09,93.39-.09s23.18-3.78,27.37,11.43c.38-2.33,19.94,8.11-55.28,13.56-.21-1.48-115.79,4.51-181.35-61.26.79.63-27.93,80.26,31,123.64,1.16-1.71,6.38,20.91,151.24,20-.41-3,100-8,100-8s23,0,12.75,11.55c1-3.19-12.78,13.44-70.07,17.49,2.52-1.93-97,14.31-147.22-1,1.37-.23-45.71-13-65.72-31.68.21,1.48-.56,91.7,64.38,153-.2-1.48,45.38,50.89,142.82,14.56-2.35-1.89,54.67-18,124.09-75.51,2.73-.45,26.24-11.86,26.76,7,1-3.19,9.24,11.36-50.17,50.58,3.89-2.15-126.92,60.07-201.12,42.65,1.94-1.08,36.11,94.8,171.3,165.11,1.16-1.71,159,76.26,253.59-11.09-1.53,4,33.84-42.61,33.84-42.61s28.8-38.77,1.79-113.1c-2.52,1.93-6.62-27.69-51.45-84.73" transform="translate(-110.68 -272.07)"/><path class="cls-4" d="M645.31,999.58s-21.48-34.35,13.7-21.91c1.74-2.56,67.67,60.88,67.67,60.88s103.05,74.79,171.65-18.92c2.52-1.92,67.67-115.51,23.2-235.45C921,785,870.65,638,780.52,571c1.77,2.73,10.56,152-71.81,257,1.19,3.59-15.2,31.25-22.56,8.23.17-3.82,4-46.83,24.63-79,.17-3.82,46.37-93.12,42-170.38,4.67-1.52-13.51-67.44-60.45-89.31,2.56,3.36-89.07-54.37-89.07-54.37S640.9,569.52,613.38,683c-1.56-1.25-2.78,50.42-16.68,70.86,4.26-4.48-21.17,13.3-13.23-25.09,3.3-1.3,25.67-157.12,17.69-184.59,1.94-1.07-.29-72.63-30.9-102.46.37-2.34-29.25-30.06-145.62-24.7-1.77-2.74,58.53,35.12,69.2,203-1-2.11-.06,80.26-.06,80.26s-1,28.17-17.86,12c1.95-1.07-11.66-23.84-6.58-52.68,3.47-5.11-6.78-139.71-30.85-182.72,1.16-1.7-21.76-76.7-98-48.36,1.94-1.08-50.41,13.52-75.05,31.92-.79-.63,76.46,33.71,101.87,131.77l13.78,49.23S384,672.75,362,644.55c1.94-1.08-24.21-64.19-24.21-64.19s-48-120.12-83.73-101.42c4.09-.66-14.36-18.1-55,30.93,3.88-2.15-26.42,15.66-48.5,37.43,2.14.41-27.06,5.93-30.13,14,2.73-.44,37.73,15.8,20.67,58.71,3.13,2.52-22.18,66.46-9.53,122.69.79.63,21,45.79,101.76,55.32,1.56,1.26,93.39-.09,93.39-.09s23.18-3.78,27.37,11.43c.38-2.33,19.94,8.11-55.28,13.56-.21-1.48-115.79,4.51-181.35-61.26.79.63-27.93,80.26,31,123.64,1.16-1.71,6.38,20.91,151.24,20-.41-3,100-8,100-8s23,0,12.75,11.55c1-3.19-12.78,13.44-70.07,17.49,2.52-1.93-97,14.31-147.22-1,1.37-.23-45.71-13-65.72-31.68.21,1.48-.56,91.7,64.38,153-.2-1.48,45.38,50.89,142.82,14.56-2.35-1.89,54.67-18,124.09-75.51,2.73-.45,26.24-11.86,26.76,7,1-3.19,9.24,11.36-50.17,50.58,3.89-2.15-126.92,60.07-201.12,42.65,1.94-1.08,36.11,94.8,171.3,165.11,1.16-1.71,159,76.26,253.59-11.09-1.53,4,33.84-42.61,33.84-42.61s28.8-38.77,1.79-113.1C694.24,1086.24,690.14,1056.62,645.31,999.58Z" transform="translate(-110.68 -272.07)"/><path class="cls-5" d="M563.23,1177.26s69-151.32,55-227c-3.13-2.51,48.94-29.18,48.94-29.18S820,967.3,887.33,889.7c1.36-.23-77.77,62.65-204,27.21,2.15.41,119.42-43.71,134.7-180.2-1.15,1.7-7.07,110.17-139.44,171.13,4.46-3-48.81,20.08-48.81,20.08s-6.11-69.41,20.43-154.75c4.66-1.52,36.72-107.44,24.17-147.79-3.1,2.78,2.63,44.24-41.55,173.34.75-4.67-29,97.84-17.7,124l-82.54-67.55s1-108.43,20.46-149.45c1.94-1.07,10.31-122.06-22.15-165.21,1,2.1,29.16,74.73,15.13,164.84,0,0-33.38,111.44-24.79,143.35,4.26-4.48-89.42-77-89.42-77s4.06-212.65-24.69-254.14c1.74-2.56,26.72,147.82,11.57,244.92,6.61-2.59-105.68-88.75-105.68-88.75s-20.64-114-33.87-139.07c-1.61-6.56,25.52,113.94,24.67,133,.57-.85-65.46-49.89-65.46-49.89s13.15-46-12.72-66.82c-5.86-2.07,19,11.29,5.67,61.16,2.72-.45-51.92-37.71-51.92-37.71l89.66,83.79a96.87,96.87,0,0,1-50.82,10.56c.2,1.48,25.8,10.18,64.73-.71-3.11,2.77,80.76,64.8,80.76,64.8l-109.11,12.5,118.89-7.28,107.28,95.3L300.07,862.09l197.8-16.37L564.34,903s-235.72,59.65-266.56,83.61c-3.31,1.29,266.05-72.18,282.86-66.59-.41-3,27.65,23.5,27.65,23.5s-71.7,126.77-168.08,175.81c-3.51-.19,89.26-35,168.59-157,1,2.11-3.6,105.06-45.57,214.87" transform="translate(-110.68 -272.07)"/></g></g><g class="cls-6"><g class="cls-6"><path class="cls-3" d="M830.56,1010s-1.67-40.48,22.75-12.27c2.77-1.36,28.67,86.4,28.67,86.4s52.54,116,158.52,68.5c3.15-.43,116-66.89,136.68-193.12-.92.45,28.11-152.17-17-255,.18,3.26-66,137.28-189.58,187.8-.74,3.71-28.67,19.63-23.68-4,2-3.23,26.64-38.72,60.49-56.43,2-3.23,86.37-58,120.77-127.29,4.81,1,21.64-65.3-8.33-107.53.56,4.2-50.5-91.32-50.5-91.32s-29.77,128.44-109.86,213.46c-.74-1.87-27.37,42.43-49.56,53.31,5.92-1.78-25,1.08.92-28.35,3.51.51,100.06-123.83,106.71-151.65,2.22,0,35.7-63.25,23.86-104.33,1.48-1.84-10.55-40.59-114.32-93.52-.18-3.26,33.49,59.49-40.3,210.62C887,602.91,847,675,847,675s-14.8,24-21.46,1.59c2.23,0,1.67-26.48,20.35-49,5.55-2.73,63.25-124.76,63.62-174,1.85-.91,19-77.42-61.23-90.52,2.22,0-50.5-13.2-81-9.4-.37-.94,49.76,67.13,23.32,164.92l-12.39,49.6s-13,28.66-18.13-6.74c2.22,0,10.73-67.76,10.73-67.76S788.53,365.43,748.21,364c3.89,1.45-3.51-22.83-63.07-.33,4.44.06-30.71.54-60.67,8.54,1.66,1.41-26.45-8.25-33.11-2.75,2.59,1,25,32.4-11.09,61.24,1.48,3.74-52.16,46.78-69,101.9.37.94-4.43,50.17,61.05,98.43.73,1.87,81.2,46.14,81.2,46.14s22,8.18,18.13,23.48c1.48-1.84,13.31,16.91-54.75-15.58.55-1.38-102.85-53.38-127.27-143,.37.94-64,55.93-34.21,122.81,1.85-.91-4.81,21.33,121.53,92.21,1.11-2.77,90.82,42.54,90.82,42.54s20,11.41,5.36,16.34c2.41-2.29-17.76,5.36-69.55-19.48,3.15-.42-91.37-35.56-127.44-73.69,1.29.48-33.3-33.9-41.44-60-.55,1.39-45.86,79.41-19.78,164.84.56-1.39,14.25,66.68,116.9,83.32-1.11-2.8,56.42,11.41,145.2-4.21,2.59,1,28.67,2.69,19.79,19.32,2.41-2.3,2.41,14.44-68.62,19.13,4.44.05-140-10.61-195.88-62.47,2.22,0-15.53,100.25,67.16,228.25,1.85-.91,100.44,145,225.85,115.86-3.33,2.74,50.49-20.29,50.49-20.29s44.21-19.44,57.52-97.39c-3.14.42,7.95-27.34-2.78-99.09" transform="translate(-110.68 -272.07)"/><path class="cls-4" d="M830.56,1010s-1.67-40.48,22.75-12.27c2.77-1.36,28.67,86.4,28.67,86.4s52.54,116,158.52,68.5c3.15-.43,116-66.89,136.68-193.12-.92.45,28.11-152.17-17-255,.18,3.26-66,137.28-189.58,187.8-.74,3.71-28.67,19.63-23.68-4,2-3.23,26.64-38.72,60.49-56.43,2-3.23,86.37-58,120.77-127.29,4.81,1,21.64-65.3-8.33-107.53.56,4.2-50.5-91.32-50.5-91.32s-29.77,128.44-109.86,213.46c-.74-1.87-27.37,42.43-49.56,53.31,5.92-1.78-25,1.08.92-28.35,3.51.51,100.06-123.83,106.71-151.65,2.22,0,35.7-63.25,23.86-104.33,1.48-1.84-10.55-40.59-114.32-93.52-.18-3.26,33.49,59.49-40.3,210.62C887,602.91,847,675,847,675s-14.8,24-21.46,1.59c2.23,0,1.67-26.48,20.35-49,5.55-2.73,63.25-124.76,63.62-174,1.85-.91,19-77.42-61.23-90.52,2.22,0-50.5-13.2-81-9.4-.37-.94,49.76,67.13,23.32,164.92l-12.39,49.6s-13,28.66-18.13-6.74c2.22,0,10.73-67.76,10.73-67.76S788.53,365.43,748.21,364c3.89,1.45-3.51-22.83-63.07-.33,4.44.06-30.71.54-60.67,8.54,1.66,1.41-26.45-8.25-33.11-2.75,2.59,1,25,32.4-11.09,61.24,1.48,3.74-52.16,46.78-69,101.9.37.94-4.43,50.17,61.05,98.43.73,1.87,81.2,46.14,81.2,46.14s22,8.18,18.13,23.48c1.48-1.84,13.31,16.91-54.75-15.58.55-1.38-102.85-53.38-127.27-143,.37.94-64,55.93-34.21,122.81,1.85-.91-4.81,21.33,121.53,92.21,1.11-2.77,90.82,42.54,90.82,42.54s20,11.41,5.36,16.34c2.41-2.29-17.76,5.36-69.55-19.48,3.15-.42-91.37-35.56-127.44-73.69,1.29.48-33.3-33.9-41.44-60-.55,1.39-45.86,79.41-19.78,164.84.56-1.39,14.25,66.68,116.9,83.32-1.11-2.8,56.42,11.41,145.2-4.21,2.59,1,28.67,2.69,19.79,19.32,2.41-2.3,2.41,14.44-68.62,19.13,4.44.05-140-10.61-195.88-62.47,2.22,0-15.53,100.25,67.16,228.25,1.85-.91,100.44,145,225.85,115.86-3.33,2.74,50.49-20.29,50.49-20.29s44.21-19.44,57.52-97.39C830.2,1109.54,841.29,1081.78,830.56,1010Z" transform="translate(-110.68 -272.07)"/><path class="cls-5" d="M671.31,1123.81s134.84-97.35,160.17-170c-1.48-3.73,57-1.14,57-1.14s109.88,115.79,206.8,81.68c1.29.47-98.59,16-190.71-77.29,1.67,1.42,125.41,21.12,206.23-89.93-1.85.91-60.66,92.24-205.86,79.71,5.36-.4-52.34-6.71-52.34-6.71s29-63.34,94.32-124.37c4.81,1,85.08-75.18,94.14-116.46-4.07.88-19.6,39.75-121.88,130.07,3-3.69-73.61,70.68-76.76,99L804.1,828.8s54.56-93.71,91.73-119.75c2.22,0,69.36-101,62.51-154.52-.18,2.32-11.65,79.37-68.42,150.73,0,0-84.16,80.31-92.48,112.29,5.92-1.78-39.59-111.17-39.59-111.17S866.6,523.6,862.16,473.32C864.93,472,812.22,615,751,691.88c7,1-47.92-129.42-47.92-129.42s38.47-109.26,39.39-137.62c1.85-6.49-34.21,111.64-44.38,127.79.92-.46-32.19-75.74-32.19-75.74s34.22-33.52,22-64.37c-4.07-4.7,10.91,19.21-25.34,56,2.59,1-26.45-58.46-26.45-58.46l36.44,117.18a96.88,96.88,0,0,1-49.39-16c-.55,1.39,17.39,21.61,56.6,31.41-4.06.88,38.11,96.28,38.11,96.28l-101-43.13,106.91,52.5,46.07,135.91L598.59,719.71l180,83.65L808,886.05s-234.36-64.82-273-59.26c-3.51-.51,266.91,69,278.75,82.12,1.11-2.78,12.4,34.1,12.4,34.1s-125,74.68-233,69.6c-3-1.9,94.88,13.75,224.17-53-.19,2.32-55.12,89.52-145.93,164.17" transform="translate(-110.68 -272.07)"/></g></g><g class="cls-7"><g class="cls-7"><path class="cls-3" d="M1215.81,996.47s-1.64-44.15,24.75-13.47c3-1.5,30.78,94.13,30.78,94.13s56.57,126.31,171.86,74.06c3.42-.47,126.22-73.46,149.24-211.25-1,.5,31.16-166.13-17.43-278.18.19,3.56-72.27,150-206.66,205.68-.82,4-31.22,21.54-25.69-4.29,2.22-3.53,29.08-42.36,65.91-61.82,2.23-3.53,94-63.6,131.69-139.37,5.22,1.06,23.77-71.32-8.59-117.27.58,4.57-54.46-99.41-54.46-99.41S1444.34,585.52,1357,678.61c-.79-2-29.9,46.41-54,58.37,6.44-2-27.12,1.28,1.12-30.94,3.82.54,109.18-135.5,116.53-165.88,2.41,0,39-69.16,26.34-113.92,1.62-2-11.28-44.24-123.75-101.54-.18-3.56,36.12,64.75-44.65,229.93.21-2.53-43.48,76.23-43.48,76.23s-16.17,26.23-23.31,1.82c2.41,0,1.92-28.9,22.3-53.58,6-3,69.21-136.37,69.82-190.14,2-1,21-84.54-66.11-98.5,2.41,0-54.79-14.19-87.94-9.91-.4-1,53.75,73,24.62,179.81l-13.66,54.17s-14.18,31.32-19.66-7.28c2.41,0,11.93-74,11.93-74s19.82-139.85-24-141.25c4.22,1.56-3.72-24.89-68.49-.09,4.82,0-33.35.72-65.92,9.56,1.8,1.54-28.69-8.88-35.94-2.86,2.81,1,27,35.25-12.31,66.86,1.6,4.08-56.83,51.25-75.34,111.46.4,1-5,54.75,65.88,107.12.79,2,88,50,88,50s23.87,8.84,19.58,25.54c1.62-2,14.4,18.39-59.39-16.76.61-1.51-111.46-57.81-137.6-155.45.4,1-69.73,61.28-37.67,134.12,2-1-5.31,23.29,131.59,100.09,1.21-3,98.45,46,98.45,46s21.64,12.37,5.75,17.81c2.63-2.51-19.3,5.92-75.44-21,3.42-.48-99.08-38.42-138.09-79.86,1.4.52-36-36.84-44.75-65.33-.6,1.51-50.14,86.82-22.17,179.91.61-1.52,15.19,72.68,126.6,90.41-1.19-3.06,61.22,12.21,157.7-5.2,2.81,1,31.12,2.81,21.41,21,2.62-2.52,2.55,15.74-74.6,21.15,4.82,0-152-11-212.46-67.32,2.41,0-17.29,109.43,72,248.72,2-1,108.47,157.73,244.78,125.45-3.63,3,54.92-22.35,54.92-22.35s48.09-21.39,62.87-106.49c-3.42.48,8.75-29.86-2.6-108.09" transform="translate(-110.68 -272.07)"/><path class="cls-4" d="M1215.81,996.47s-1.64-44.15,24.75-13.47c3-1.5,30.78,94.13,30.78,94.13s56.57,126.31,171.86,74.06c3.42-.47,126.22-73.46,149.24-211.25-1,.5,31.16-166.13-17.43-278.18.19,3.56-72.27,150-206.66,205.68-.82,4-31.22,21.54-25.69-4.29,2.22-3.53,29.08-42.36,65.91-61.82,2.23-3.53,94-63.6,131.69-139.37,5.22,1.06,23.77-71.32-8.59-117.27.58,4.57-54.46-99.41-54.46-99.41S1444.34,585.52,1357,678.61c-.79-2-29.9,46.41-54,58.37,6.44-2-27.12,1.28,1.12-30.94,3.82.54,109.18-135.5,116.53-165.88,2.41,0,39-69.16,26.34-113.92,1.62-2-11.28-44.24-123.75-101.54-.18-3.56,36.12,64.75-44.65,229.93.21-2.53-43.48,76.23-43.48,76.23s-16.17,26.23-23.31,1.82c2.41,0,1.92-28.9,22.3-53.58,6-3,69.21-136.37,69.82-190.14,2-1,21-84.54-66.11-98.5,2.41,0-54.79-14.19-87.94-9.91-.4-1,53.75,73,24.62,179.81l-13.66,54.17s-14.18,31.32-19.66-7.28c2.41,0,11.93-74,11.93-74s19.82-139.85-24-141.25c4.22,1.56-3.72-24.89-68.49-.09,4.82,0-33.35.72-65.92,9.56,1.8,1.54-28.69-8.88-35.94-2.86,2.81,1,27,35.25-12.31,66.86,1.6,4.08-56.83,51.25-75.34,111.46.4,1-5,54.75,65.88,107.12.79,2,88,50,88,50s23.87,8.84,19.58,25.54c1.62-2,14.4,18.39-59.39-16.76.61-1.51-111.46-57.81-137.6-155.45.4,1-69.73,61.28-37.67,134.12,2-1-5.31,23.29,131.59,100.09,1.21-3,98.45,46,98.45,46s21.64,12.37,5.75,17.81c2.63-2.51-19.3,5.92-75.44-21,3.42-.48-99.08-38.42-138.09-79.86,1.4.52-36-36.84-44.75-65.33-.6,1.51-50.14,86.82-22.17,179.91.61-1.52,15.19,72.68,126.6,90.41-1.19-3.06,61.22,12.21,157.7-5.2,2.81,1,31.12,2.81,21.41,21,2.62-2.52,2.55,15.74-74.6,21.15,4.82,0-152-11-212.46-67.32,2.41,0-17.29,109.43,72,248.72,2-1,108.47,157.73,244.78,125.45-3.63,3,54.92-22.35,54.92-22.35s48.09-21.39,62.87-106.49C1215,1105,1227.16,1074.7,1215.81,996.47Z" transform="translate(-110.68 -272.07)"/><path class="cls-5" d="M1042.39,1121.27S1189.23,1014.5,1217,935.1c-1.59-4.07,61.88-1.48,61.88-1.48s118.83,125.85,224.23,88.23c1.4.51-107.13,17.82-206.78-83.51,1.8,1.53,136.1,22.51,224.34-99-2,1-66.27,100.88-223.89,87.82,5.82-.46-56.82-7.1-56.82-7.1s31.8-69.22,103-136.07c5.22,1.06,92.71-82.38,102.73-127.45-4.43,1-21.46,43.44-132.91,142.4,3.23-4-80.24,77.42-83.77,108.34l-41.17-108.43s59.65-102.46,100.13-131c2.41,0,75.74-110.44,68.53-168.84-.21,2.53-13,86.64-74.94,164.73,0,0-91.73,88-100.9,122.89,6.43-2-42.53-121.12-42.53-121.12S1257,465.66,1252.37,410.82c3-1.49-54.81,154.76-121.62,238.9,7.63,1.08-51.49-141-51.49-141s42.24-119.36,43.36-150.29c2-7.09-37.62,121.93-48.74,139.59,1-.5-34.64-82.49-34.64-82.49s37.3-36.71,24.17-70.31c-4.4-5.11,11.77,20.9-27.75,61.14,2.81,1-28.48-63.67-28.48-63.67l39.09,127.69a104.25,104.25,0,0,1-53.57-17.21c-.61,1.51,18.79,23.5,61.34,34-4.43,1,41,104.88,41,104.88l-109.5-46.63,115.88,56.83,49.46,148.07L965.12,680.73l195.1,90.5,31.6,90.08s-254.23-69.72-296.24-63.5c-3.81-.54,289.56,74.1,302.37,88.41,1.21-3,13.31,37.16,13.31,37.16s-136.09,82-253.37,76.9c-3.21-2.06,103,14.61,243.66-58.72-.21,2.53-60.23,97.89-159.16,179.71" transform="translate(-110.68 -272.07)"/></g></g><g class="cls-8"><g class="cls-8"><path class="cls-3" d="M1518.6,995.27s2.64-44.11,25.94-11c3.15-1.2,21.53,96.67,21.53,96.67s44.07,131.2,163.88,90.35c3.45-.15,132.74-60.91,169-195.83-1,.4,47.1-162.33,9.58-278.55-.16,3.55-86.46,142.34-225.6,184.71-1.2,3.95-33.15,18.42-25.16-6.75,2.56-3.3,33-39.35,71.6-55.15,2.55-3.3,99.75-54.21,144.55-126,5.1,1.56,30.57-68.69,2.8-117.56.14,4.61-44.58-104.21-44.58-104.21s-46.29,136.4-142.22,220.6c-.59-2.1-34.25,43.3-59.44,52.87,6.59-1.34-27.12-1.35,4.11-30.69,3.74.91,121.78-124.3,132-153.83,2.4.26,45.54-65,37.24-110.83,1.81-1.85-6.94-45.12-113.34-113,.16-3.56,29.68,67.94-66.7,224.53.46-2.5-50.65,71.66-50.65,71.66s-18.63,24.55-23.37-.44c2.4.25,4.71-28.58,27.38-51.17,6.3-2.4,82.08-129,87.89-182.49,2.1-.8,29.09-82.11-56.27-104.44,2.4.25-53.15-19.42-86.57-18.37-.29-1.06,46.44,77.88,7.11,181.35l-18.84,52.59s-17.14,29.81-18.86-9.15c2.4.26,19-72.46,19-72.46s33.26-137.28-10.18-142.91c4,2-1.3-25.13-68.17-6.72,4.8.51-33.26-2.51-66.53,3.14,1.64,1.7-27.7-11.62-35.5-6.32,2.69,1.3,23.45,37.69-18.72,65.35,1.19,4.21-61.53,45.51-85.77,103.64.29,1.05-10.31,54,55.2,113,.59,2.1,82.74,58.27,82.74,58.27s22.9,11.1,17,27.31c1.8-1.85,12.55,19.7-57.49-22.43.75-1.45-105.34-68.32-121.92-168,.3,1.05-75.33,54.24-50.47,129.84,2.1-.8-7.53,22.67,121.29,112.35,1.5-2.89,93.53,55.34,93.53,55.34s20.35,14.4,4,18.28c2.85-2.25-19.79,4-73.06-28.16,3.44-.15-94.9-47.83-129.72-92.85,1.35.65-32.28-40.16-38.21-69.36-.75,1.45-58.31,81.56-39.48,176.92.75-1.45,8.08,73.81,117.26,102.24-.9-3.16,59.74,18.08,157.46,10.08,2.69,1.31,30.7,5.81,19.28,23,2.85-2.25,1,15.92-76.3,13.83,4.79.51-150.24-25.64-205-87.56,2.4.25-27.79,107.24,47.57,254.52,2.1-.8,92.69,167.48,231.48,148.54-3.9,2.65,56.83-16.92,56.83-16.92s49.93-16.64,72.88-99.91c-3.44.14,11.6-28.87,7.87-107.83" transform="translate(-110.68 -272.07)"/><path class="cls-4" d="M1518.6,995.27s2.64-44.11,25.94-11c3.15-1.2,21.53,96.67,21.53,96.67s44.07,131.2,163.88,90.35c3.45-.15,132.74-60.91,169-195.83-1,.4,47.1-162.33,9.58-278.55-.16,3.55-86.46,142.34-225.6,184.71-1.2,3.95-33.15,18.42-25.16-6.75,2.56-3.3,33-39.35,71.6-55.15,2.55-3.3,99.75-54.21,144.55-126,5.1,1.56,30.57-68.69,2.8-117.56.14,4.61-44.58-104.21-44.58-104.21s-46.29,136.4-142.22,220.6c-.59-2.1-34.25,43.3-59.44,52.87,6.59-1.34-27.12-1.35,4.11-30.69,3.74.91,121.78-124.3,132-153.83,2.4.26,45.54-65,37.24-110.83,1.81-1.85-6.94-45.12-113.34-113,.16-3.56,29.68,67.94-66.7,224.53.46-2.5-50.65,71.66-50.65,71.66s-18.63,24.55-23.37-.44c2.4.25,4.71-28.58,27.38-51.17,6.3-2.4,82.08-129,87.89-182.49,2.1-.8,29.09-82.11-56.27-104.44,2.4.25-53.15-19.42-86.57-18.37-.29-1.06,46.44,77.88,7.11,181.35l-18.84,52.59s-17.14,29.81-18.86-9.15c2.4.26,19-72.46,19-72.46s33.26-137.28-10.18-142.91c4,2-1.3-25.13-68.17-6.72,4.8.51-33.26-2.51-66.53,3.14,1.64,1.7-27.7-11.62-35.5-6.32,2.69,1.3,23.45,37.69-18.72,65.35,1.19,4.21-61.53,45.51-85.77,103.64.29,1.05-10.31,54,55.2,113,.59,2.1,82.74,58.27,82.74,58.27s22.9,11.1,17,27.31c1.8-1.85,12.55,19.7-57.49-22.43.75-1.45-105.34-68.32-121.92-168,.3,1.05-75.33,54.24-50.47,129.84,2.1-.8-7.53,22.67,121.29,112.35,1.5-2.89,93.53,55.34,93.53,55.34s20.35,14.4,4,18.28c2.85-2.25-19.79,4-73.06-28.16,3.44-.15-94.9-47.83-129.72-92.85,1.35.65-32.28-40.16-38.21-69.36-.75,1.45-58.31,81.56-39.48,176.92.75-1.45,8.08,73.81,117.26,102.24-.9-3.16,59.74,18.08,157.46,10.08,2.69,1.31,30.7,5.81,19.28,23,2.85-2.25,1,15.92-76.3,13.83,4.79.51-150.24-25.64-205-87.56,2.4.25-27.79,107.24,47.57,254.52,2.1-.8,92.69,167.48,231.48,148.54-3.9,2.65,56.83-16.92,56.83-16.92s49.93-16.64,72.88-99.91C1507.29,1103.24,1522.33,1074.23,1518.6,995.27Z" transform="translate(-110.68 -272.07)"/><path class="cls-5" d="M1333.92,1102.7s156.48-92.06,191.85-168.4c-1.19-4.21,61.73,4.51,61.73,4.51s106.09,136.77,214.63,109.52c1.35.65-108.35,7.37-197.71-103.13,1.64,1.7,133.27,35.57,232.85-76.8-2.09.79-75.71,94-231.34,65.74,5.85.11-55.86-12.56-55.86-12.56s38.35-65.83,115.64-125.47c5.09,1.56,100.25-73,114.58-116.91-4.5.54-25.56,41.16-146.07,128.87,3.6-3.7-87.35,69.29-93.86,99.72l-30.48-111.9s69.28-96.21,112.33-120.72c2.4.25,86.08-102.59,84.55-161.42-.45,2.5-21.3,85-90.53,156.7,0,0-99.81,78.69-112.32,112.56,6.6-1.34-30.6-124.67-30.6-124.67S1611,470.93,1611.67,415.91c3.15-1.2-69.54,148.72-144.17,226,7.49,1.81-37.6-145.31-37.6-145.31s53.58-114.71,57.69-145.39c2.71-6.86-49.24,117.72-62,134.22,1-.4-26.49-85.46-26.49-85.46s40.67-32.92,30.86-67.64c-3.89-5.51,9.69,21.95-33.54,58.17,2.69,1.31-22.19-66.12-22.19-66.12l26.55,130.87a104.26,104.26,0,0,1-51.65-22.32c-.75,1.45,16.43,25.21,57.75,39.8-4.49.54,30.64,108.35,30.64,108.35l-104.47-57,109.84,67.78L1477.77,744l-178.12-87.27,185.42,109,22.73,92.72s-246.29-94-288.7-91.87c-3.74-.91,281,101.77,292.39,117.26,1.51-2.9,9.66,38.27,9.66,38.27s-143.39,68.44-259.63,52c-3-2.36,101.09,24.5,248.21-34.87-.46,2.5-69.42,91.6-175.81,163.47" transform="translate(-110.68 -272.07)"/></g></g></g></g></svg>